<?xml version="1.0" standalone="no"?>
<!DOCTYPE svg PUBLIC "-//W3C//DTD SVG 20010904//EN"
 "http://www.w3.org/TR/2001/REC-SVG-20010904/DTD/svg10.dtd">
<svg version="1.0" xmlns="http://www.w3.org/2000/svg"
 width="700.000000pt" height="700.000000pt" viewBox="0 0 700.000000 700.000000"
 preserveAspectRatio="xMidYMid meet">
<metadata>
Created by potrace 1.14, written by Peter Selinger 2001-2017
</metadata>
<g transform="translate(0.000000,700.000000) scale(0.100000,-0.100000)"
fill="#000000" stroke="none">
<path d="M0 3500 l0 -3500 3500 0 3500 0 0 3500 0 3500 -3500 0 -3500 0 0
-3500z m6979 0 l0 -3478 -3479 0 -3479 -1 0 3479 0 3479 3479 0 3478 0 1
-3479z"/>
<path d="M3369 4496 c-2 -2 -40 -6 -84 -10 -396 -30 -870 -220 -1282 -512
-187 -133 -404 -314 -521 -433 l-23 -23 -44 38 c-24 22 -83 74 -132 118 -141
126 -387 317 -429 333 -31 12 -12 -15 34 -47 154 -109 339 -259 455 -370 32
-30 65 -59 73 -63 33 -19 24 -29 -166 -196 -78 -69 -242 -196 -396 -307 -16
-12 -26 -25 -22 -29 18 -19 363 249 562 436 l60 57 37 -37 c52 -53 126 -119
194 -176 33 -28 62 -52 65 -55 7 -8 111 -91 141 -113 322 -236 593 -384 886
-482 110 -37 275 -79 348 -90 23 -3 52 -8 65 -10 127 -26 490 -26 635 0 17 3
57 10 90 16 309 52 712 223 1040 440 79 52 250 174 271 194 6 5 29 24 50 40
49 39 168 139 219 187 22 20 52 46 68 58 l27 22 65 -60 c140 -132 481 -402
507 -402 23 0 0 23 -84 82 -105 74 -335 264 -418 344 l-55 54 41 37 c155 142
311 270 437 359 42 31 77 60 77 65 0 13 -13 11 -35 -6 -130 -97 -301 -229
-305 -234 -3 -3 -39 -35 -80 -71 -41 -35 -91 -79 -110 -97 -19 -18 -37 -33
-41 -33 -4 0 -26 18 -50 41 -159 148 -426 356 -604 471 -371 240 -770 398
-1120 443 -27 4 -61 9 -75 11 -30 6 -366 15 -371 10z m356 -30 c434 -52 836
-209 1255 -489 142 -96 392 -291 495 -388 28 -26 61 -57 75 -69 l25 -22 -25
-20 c-14 -11 -46 -39 -71 -62 -25 -22 -68 -60 -95 -83 -27 -23 -60 -51 -74
-63 -14 -12 -59 -47 -100 -78 -41 -32 -77 -60 -80 -63 -3 -4 -50 -37 -105 -75
-312 -214 -649 -376 -946 -453 -99 -26 -142 -35 -269 -56 -14 -3 -59 -7 -100
-11 -41 -3 -80 -7 -87 -9 -7 -2 -15 -1 -17 4 -3 4 28 13 69 19 455 71 804 482
803 946 0 267 -95 501 -279 685 -146 147 -352 253 -538 277 -148 19 -358 0
-461 -42 -3 -1 -16 -5 -30 -10 -37 -11 -140 -66 -201 -107 -130 -86 -246 -219
-318 -364 -32 -64 -62 -139 -66 -163 0 -3 -6 -27 -13 -55 -19 -83 -23 -125
-22 -228 3 -412 267 -770 667 -908 29 -10 53 -16 53 -14 0 3 10 1 23 -4 27
-10 90 -19 191 -26 38 -3 71 -7 74 -10 5 -5 -226 3 -278 10 -85 11 -117 16
-140 20 -14 3 -50 9 -81 15 -94 17 -289 77 -410 125 -351 141 -762 411 -1071
703 -37 35 -77 72 -88 82 -21 18 -21 18 52 88 214 204 480 406 733 555 279
165 668 304 928 333 29 3 81 9 117 13 72 8 327 6 405 -3z m-81 -30 c26 -3 67
-11 90 -17 22 -6 48 -12 56 -14 8 -2 26 -8 40 -13 328 -128 545 -385 615 -727
13 -62 13 -252 0 -325 -99 -550 -648 -899 -1183 -750 -413 115 -698 496 -691
924 5 296 138 560 372 737 201 152 443 216 701 185z m-54 -1906 c0 -5 -4 -10
-10 -10 -5 0 -10 5 -10 10 0 6 5 10 10 10 6 0 10 -4 10 -10z"/>
<path d="M2943 4120 c-58 -102 -113 -196 -122 -210 -9 -14 -21 -34 -26 -45 -6
-11 -55 -95 -108 -187 -53 -92 -97 -172 -97 -179 0 -6 24 -52 54 -102 79 -135
356 -616 379 -659 12 -21 23 -39 26 -39 3 -1 214 -2 468 -3 l461 -1 87 150
c48 82 153 263 232 402 l145 252 -47 83 c-26 46 -56 99 -67 118 -166 291 -334
578 -345 590 -12 13 -78 15 -474 15 l-460 0 -106 -185z"/>
</g>
</svg>
